<svg
  version="1.1"
  xmlns="http://www.w3.org/2000/svg"
  preserveAspectRatio="xMidYMid meet"
  viewBox="0 0 100 100"
  width="600"
  height="600"
  role="img"
>
  <path
    d="M45.65 59.23L41.4 64.54C42.95 64.4 44.37 64.52 45.65 64.88C46.1 65 46.48 64.87 46.81 65.15C47.44 65.69 47.8 66.45 47.9 67.44C47.64 67.46 47.19 67.04 46.56 66.17C45.62 64.88 42.89 65.29 40.71 65.36C39.46 65.39 38.06 65.32 36.99 65.55C36.18 65.72 34.81 67.73 35.03 66.65C35.21 65.74 36.23 64.81 37.14 64.54C37.87 64.32 38.7 64.41 39.63 64.82C39.71 64.86 39.8 64.84 39.85 64.77C40.17 64.37 40.98 63.37 42.27 61.76L44.96 58.41L45.65 59.23Z"
    fill="#1e88e5"
    opacity="0"
    id=""
  >
    <animate
      attributeName="opacity"
      id="bird-animate-1"
      from="0"
      to="1"
      dur="0.5s"
      begin="0s;bird-animate-9-fade-out.end+0.5s"
      fill="freeze"
    />
    <animate
      attributeName="opacity"
      from="1"
      to="0"
      dur="0.5"
      begin="bird-animate-9.end+1s"
      fill="freeze"
    />
  </path>
  <path
    d="M46.31 59.61L42.06 64.92C43.61 64.79 45.03 64.9 46.31 65.26C46.75 65.39 47.14 65.25 47.47 65.53C48.1 66.07 48.31 66.76 48.1 67.61C48.14 67.77 47.85 67.42 47.22 66.56C46.27 65.26 43.55 65.67 41.36 65.74C40.12 65.78 38.72 65.71 37.64 65.93C36.84 66.1 35.84 67.64 36.06 66.56C36.24 65.65 36.89 65.2 37.79 64.92C38.49 64.71 39.29 64.8 40.18 65.17C40.32 65.23 40.48 65.19 40.58 65.07C41.25 64.23 42.93 62.14 45.62 58.79L46.31 59.61Z"
    fill="#2196f3"
    opacity="0"
  >
    <animate
      attributeName="opacity"
      id="bird-animate-2"
      from="0"
      to="1"
      dur="0.5s"
      begin="0s;bird-animate-9-fade-out.end+0.5s"
      fill="freeze"
    />
    <animate
      attributeName="opacity"
      from="1"
      to="0"
      dur="0.5"
      begin="bird-animate-9.end+1s"
      fill="freeze"
    />
  </path>
  <path
    d="M21.96 27.84C20.92 28.32 22.88 29.26 27.86 30.65C27.65 30.36 28.07 33.83 29.11 41.07C30.68 51.91 40.14 56.62 45.79 59.89C49.55 62.06 55.74 61.87 64.35 59.32C74.5 65.56 81.19 69.5 84.43 71.13C87.66 72.76 87.87 72.25 85.05 69.58C80.1 65.5 74.35 61.2 67.82 56.69C65.18 54.86 63.87 53.61 63.91 52.94C63.98 52.44 64 51.91 63.96 51.37C63.72 48.01 61.37 43.83 56.9 38.82C49.12 30.07 46.16 30.3 44.53 28.01C42.9 25.73 40.38 21.35 38.35 20.31C36.32 19.27 33.42 19.78 31.23 20.6C29.77 21.14 28.39 22.84 27.08 25.7C24.71 26.63 23.01 27.35 21.96 27.84Z"
    fill="#2196f3"
    opacity="0"
  >
    <animate
      attributeName="opacity"
      id="bird-animate-3"
      from="0"
      to="1"
      dur="0.5s"
      begin="0s;bird-animate-9-fade-out.end+0.5s"
      fill="freeze"
    />
    <animate
      attributeName="opacity"
      from="1"
      to="0"
      dur="0.5"
      begin="bird-animate-9.end+1s"
      fill="freeze"
    />
  </path>
  <path
    d="M57.46 53.65C76.23 66.7 86.09 72.84 87.02 72.06C87.96 71.28 80.27 65.04 63.95 53.34L57.46 53.65Z"
    fill="#1976d2"
    opacity="0"
  >
    <animate
      attributeName="opacity"
      id="bird-animate-4"
      from="0"
      to="1"
      dur="0.5s"
      begin="0s;bird-animate-9-fade-out.end+0.5s"
      fill="freeze"
    />
    <animate
      attributeName="opacity"
      from="1"
      to="0"
      dur="0.5"
      begin="bird-animate-9.end+1s"
      fill="freeze"
    />
  </path>
  <path
    d="M45.29 28.8C49.54 31.74 59.1 40.38 60.11 42.62C61.11 44.86 64.26 47.5 63.92 53.02C63.81 54.82 63.91 56.02 64.2 56.61C64.68 57.55 63.63 58.52 62.73 57.99C57.39 54.84 45.06 47.57 39.87 44.51C37.66 43.2 36.72 40.48 37.67 38.09C40.7 30.47 43.24 27.37 45.29 28.8Z"
    fill="#1e88e5"
    opacity="0"
  >
    <animate
      attributeName="opacity"
      id="bird-animate-5"
      from="0"
      to="1"
      dur="0.5s"
      begin="0s;bird-animate-9-fade-out.end+0.5s"
      fill="freeze"
    />
    <animate
      attributeName="opacity"
      from="1"
      to="0"
      dur="0.5"
      begin="bird-animate-9.end+1s"
      fill="freeze"
    />
  </path>
  <path
    d="M28.22 84.36C28.22 85.74 27.1 86.86 25.72 86.86C24.34 86.86 23.22 85.74 23.22 84.36C23.22 82.98 24.34 81.86 25.72 81.86C27.1 81.86 28.22 82.98 28.22 84.36Z"
    id="circle-1"
    fill="#ff9800"
    opacity="0"
  >
    <animate
      attributeName="opacity"
      id="bird-animate-6"
      from="0"
      to="1"
      dur="0.5s"
      begin="1s;bird-animate-9-fade-out.end+1.5s"
      fill="freeze"
    />
    <animate
      attributeName="opacity"
      from="1"
      to="0"
      dur="0.5"
      begin="bird-animate-9.end+1s"
      fill="freeze"
    />
  </path>
    <path
    d="M36.29 84.36C36.29 85.74 35.17 86.86 33.79 86.86C32.41 86.86 31.29 85.74 31.29 84.36C31.29 82.98 32.41 81.86 33.79 81.86C35.17 81.86 36.29 82.98 36.29 84.36Z"
    id="circle-2"
    fill="#ff9800"
    opacity="0"
  >
    <animate
      attributeName="opacity"
      id="bird-animate-7"
      from="0"
      to="1"
      dur="0.5s"
      begin="1.5s;bird-animate-9-fade-out.end+2s"
      fill="freeze"
    />
    <animate
      attributeName="opacity"
      from="1"
      to="0"
      dur="0.5"
      begin="bird-animate-9.end+1s"
      fill="freeze"
    />
  </path>
    <path
    d="M44.64 84.36C44.64 85.74 43.52 86.86 42.14 86.86C40.76 86.86 39.64 85.74 39.64 84.36C39.64 82.98 40.76 81.86 42.14 81.86C43.52 81.86 44.64 82.98 44.64 84.36Z"
    id="circle-3"
    fill="#ff9800"
    opacity="0"
  >
    <animate
      attributeName="opacity"
      id="bird-animate-8"
      from="0"
      to="1"
      dur="0.5s"
      begin="2s;bird-animate-9-fade-out.end+2.5s"
      fill="freeze"
    />
    <animate
      attributeName="opacity"
      from="1"
      to="0"
      dur="0.5"
      begin="bird-animate-9.end+1s"
      fill="freeze"
    />
  </path>
  <text
    x="49"
    y="87"
    font-size="14"
    font-family="Roboto"
    fill="#ff9800"
    opacity="0"
  >
    <animate
      attributeName="opacity"
      id="bird-animate-9"
      from="0"
      to="1"
      dur="0.5s"
      begin="2.5s;bird-animate-9-fade-out.end+3s"
      fill="freeze"
    />
    <animate
      attributeName="opacity"
      id="bird-animate-9-fade-out"
      from="1"
      to="0"
      dur="0.5s"
      begin="bird-animate-9.end+1s"
      fill="freeze"
    />
  Bird!
  </text>
</svg>