<?xml version="1.0" encoding="UTF-8" standalone="no"?>
<!DOCTYPE svg PUBLIC "-//W3C//DTD SVG 1.1//EN" "http://www.w3.org/Graphics/SVG/1.1/DTD/svg11.dtd">
<svg version="1.1" xmlns="http://www.w3.org/2000/svg" xmlns:xlink="http://www.w3.org/1999/xlink" preserveAspectRatio="xMidYMid meet" viewBox="0 0 1920 2560" width="1920" height="2560"><defs><path d="M1119.11 1827.16C1120.45 1829.41 1122.19 1831.39 1124.25 1833C1126.52 1834.79 1131.67 1838.84 1134.31 1840.91C1135.08 1841.52 1136.17 1841.52 1136.94 1840.92C1137.22 1840.7 1136.33 1841.39 1136.51 1841.26C1137.62 1840.4 1138.12 1838.96 1137.79 1837.6C1136.94 1834.06 1134.81 1825.23 1131.4 1811.09L1155.23 1828.76L1151.79 1994.99L1108.53 1950.7C1109.49 1874.92 1110.08 1827.55 1110.32 1808.61C1110.33 1808.32 1110.73 1808.25 1110.83 1808.52C1111.74 1811.01 1112.91 1814.18 1113.55 1815.92C1114.79 1819.28 1116.33 1822.52 1118.17 1825.59C1118.76 1826.59 1118.37 1825.93 1119.11 1827.16Z" id="b55CdEPOg1"></path><path d="M1155.23 1829.53L1448.53 1836.14L1450.83 1996.93L1152.53 1995.07L1155.23 1829.53Z" id="aBy05OSyo"></path><path d="M1156.02 1783.84L1454.12 1791.95L1453.36 1834.79L1156.61 1828.34C1143.75 1818.56 1135.72 1812.45 1132.51 1810C1131.13 1808.95 1130.26 1807.36 1130.13 1805.63C1129.63 1799 1128.25 1780.62 1127.73 1773.68C1127.69 1773.12 1128.25 1772.7 1128.78 1772.92C1132.41 1774.37 1141.49 1778.02 1156.02 1783.84Z" id="a1GKOoNFx3"></path><path d="M1155.23 1784.02L1153.83 1828.13L1155.23 1784.02Z" id="f15TYpxIM1"></path></defs><g><g><g><g><use xlink:href="#b55CdEPOg1" opacity="1" fill-opacity="0" stroke="#000000" stroke-width="1" stroke-opacity="1"></use></g></g><g><g><use xlink:href="#aBy05OSyo" opacity="1" fill-opacity="0" stroke="#000000" stroke-width="1" stroke-opacity="1"></use></g></g><g><g><use xlink:href="#a1GKOoNFx3" opacity="1" fill-opacity="0" stroke="#000000" stroke-width="1" stroke-opacity="1"></use></g></g><g><g><use xlink:href="#f15TYpxIM1" opacity="1" fill-opacity="0" stroke="#000000" stroke-width="1" stroke-opacity="1"></use></g></g></g></g></svg>