<?xml version="1.0" encoding="UTF-8" standalone="no"?>
<!DOCTYPE svg PUBLIC "-//W3C//DTD SVG 1.1//EN" "http://www.w3.org/Graphics/SVG/1.1/DTD/svg11.dtd">
<svg version="1.1" xmlns="http://www.w3.org/2000/svg" xmlns:xlink="http://www.w3.org/1999/xlink" preserveAspectRatio="xMidYMid meet" viewBox="0 0 1920 2560" width="1920" height="2560"><defs><path d="M1165.87 1582.55L1159.55 1604.29L1120.64 1617.81L1120.64 1579.53L1165.87 1582.55Z" id="g2XWx0y5jE"></path><path d="M1460.48 1793.51L1457.7 1590.92L1165.87 1582.55C1164.82 1690.91 1164.15 1758.64 1163.89 1785.73C1163.89 1785.91 1164.03 1786.05 1164.2 1786.05C1203.7 1787.05 1302.47 1789.54 1460.48 1793.51Z" id="fFaB7vQMO"></path><path d="M1159.98 1603.81L1165.87 1582.55C1164.83 1689.87 1164.17 1756.94 1163.91 1783.77C1163.9 1784.86 1162.79 1785.59 1161.78 1785.17C1158.54 1783.82 1149.81 1780.19 1146.29 1778.72C1145.82 1778.53 1145.45 1778.16 1145.24 1777.7C1144.64 1776.4 1145.27 1777.78 1145.2 1777.62C1143.25 1773.34 1140.82 1769.28 1137.97 1765.54C1137.48 1764.91 1138.33 1766.02 1137.35 1764.73C1136.16 1763.18 1135.34 1761.38 1134.93 1759.48C1134.56 1757.74 1134.35 1756.76 1134.05 1755.36C1133.41 1752.39 1131.82 1749.72 1129.53 1747.74C1128.25 1746.64 1126.65 1745.26 1125.05 1743.88C1123.83 1742.83 1123.12 1741.3 1123.12 1739.68C1123.12 1723.5 1123.12 1683.04 1123.12 1618.31L1159.98 1603.81Z" id="eKjQ2AShz"></path></defs><g><g><g><g><use xlink:href="#g2XWx0y5jE" opacity="1" fill-opacity="0" stroke="#000000" stroke-width="1" stroke-opacity="1"></use></g></g><g><g><use xlink:href="#fFaB7vQMO" opacity="1" fill-opacity="0" stroke="#000000" stroke-width="1" stroke-opacity="1"></use></g></g><g><g><use xlink:href="#eKjQ2AShz" opacity="1" fill-opacity="0" stroke="#000000" stroke-width="1" stroke-opacity="1"></use></g></g></g></g></svg>